<svg xmlns="http://www.w3.org/2000/svg" viewBox="0 0 360 360" fill="none" shape-rendering="auto"
    width="512" height="512">
    <desc>"Avatar Illustration System" by "Micah Lanier", licensed under "CC BY 4.0". / Remix of the
        original. - Created with dicebear.com</desc>
    <metadata xmlns:dc="http://purl.org/dc/elements/1.1/" xmlns:cc="http://creativecommons.org/ns#"
        xmlns:rdf="http://www.w3.org/1999/02/22-rdf-syntax-ns#">
        <rdf:RDF>
            <cc:Work>
                <dc:title>Avatar Illustration System</dc:title>
                <dc:creator>
                    <cc:Agent rdf:about="https://dribbble.com/micahlanier">
                        <dc:title>Micah Lanier</dc:title>
                    </cc:Agent>
                </dc:creator>
                <dc:source>https://www.figma.com/community/file/829741575478342595</dc:source>
                <cc:license rdf:resource="https://creativecommons.org/licenses/by/4.0/" />
            </cc:Work>
        </rdf:RDF>
    </metadata>
    <mask id="viewboxMask">
        <rect width="360" height="360" rx="0" ry="0" x="0" y="0" fill="#fff" />
    </mask>
    <g mask="url(#viewboxMask)">
        <g transform="translate(80 23)">
            <path d="M154 319.5c-14.4-20-25.67-58.67-27-78L58.5 212 30 319.5h124Z" fill="#f9c9b6"
                stroke="#000" stroke-width="4" />
            <path
                d="M130.37 263.69c-2.1.2-4.22.31-6.37.31-30.78 0-56.05-21.57-58.76-49.1L127 241.5c.38 5.48 1.55 13.32 3.37 22.19Z"
                fill="#000" style="mix-blend-mode:multiply" />
            <path
                d="M181.94 151.37v.01l.1.4.14.65A75.72 75.72 0 0 1 34.93 187.7l-.2-.74L18 117.13l-.06-.29A75.72 75.72 0 0 1 165.2 81.55l.05.21.02.08.05.2.05.2v.01l16.4 68.44.08.34.08.34Z"
                fill="#f9c9b6" stroke="#000" stroke-width="4" />
            <g transform="translate(34 102.3)">
                <g fill="#000000">
                    <path
                        d="M31 109a1 1 0 1 1-2 0 1 1 0 0 1 2 0ZM83 116a1 1 0 1 1-2 0 1 1 0 0 1 2 0ZM79 123a1 1 0 1 1-2 0 1 1 0 0 1 2 0ZM99 121a1 1 0 1 1-2 0 1 1 0 0 1 2 0ZM100 111a1 1 0 1 1-2 0 1 1 0 0 1 2 0ZM120 116a1 1 0 1 1-2 0 1 1 0 0 1 2 0ZM130 102a1 1 0 1 1-2 0 1 1 0 0 1 2 0ZM21 88a1 1 0 1 1-2 0 1 1 0 0 1 2 0ZM54 104a1 1 0 1 1-2 0 1 1 0 0 1 2 0ZM51 124a1 1 0 1 1-2 0 1 1 0 0 1 2 0ZM69 128a1 1 0 1 1-2 0 1 1 0 0 1 2 0ZM103 102a1 1 0 1 1-2 0 1 1 0 0 1 2 0ZM117 106a1 1 0 1 1-2 0 1 1 0 0 1 2 0ZM109 123a1 1 0 1 1-2 0 1 1 0 0 1 2 0ZM123 92a1 1 0 1 1-2 0 1 1 0 0 1 2 0ZM30 94a1 1 0 1 1-2 0 1 1 0 0 1 2 0ZM54 94a1 1 0 1 1-2 0 1 1 0 0 1 2 0ZM54 76a1 1 0 1 1-2 0 1 1 0 0 1 2 0ZM58 130a1 1 0 1 1-2 0 1 1 0 0 1 2 0ZM85 130a1 1 0 1 1-2 0 1 1 0 0 1 2 0ZM96 130a1 1 0 1 1-2 0 1 1 0 0 1 2 0ZM113 94a1 1 0 1 1-2 0 1 1 0 0 1 2 0ZM113 76a1 1 0 1 1-2 0 1 1 0 0 1 2 0ZM133 89a1 1 0 1 1-2 0 1 1 0 0 1 2 0ZM33 81a1 1 0 1 1-2 0 1 1 0 0 1 2 0ZM43 116a1 1 0 1 1-2 0 1 1 0 0 1 2 0ZM39 123a1 1 0 1 1-2 0 1 1 0 0 1 2 0ZM79 103a1 1 0 1 1-2 0 1 1 0 0 1 2 0ZM91 105a1 1 0 1 1-2 0 1 1 0 0 1 2 0ZM77 135a1 1 0 1 1-2 0 1 1 0 0 1 2 0ZM100 84a1 1 0 1 1-2 0 1 1 0 0 1 2 0ZM100 66a1 1 0 1 1-2 0 1 1 0 0 1 2 0ZM124 81a1 1 0 1 1-2 0 1 1 0 0 1 2 0ZM131 71a1 1 0 1 1-2 0 1 1 0 0 1 2 0ZM42 90a1 1 0 1 1-2 0 1 1 0 0 1 2 0ZM42 101a1 1 0 1 1-2 0 1 1 0 0 1 2 0ZM63 86a1 1 0 1 1-2 0 1 1 0 0 1 2 0ZM63 68a1 1 0 1 1-2 0 1 1 0 0 1 2 0ZM75 82a1 1 0 1 1-2 0 1 1 0 0 1 2 0ZM87 76a1 1 0 1 1-2 0 1 1 0 0 1 2 0ZM100 76a1 1 0 1 1-2 0 1 1 0 0 1 2 0Z" />
                    <path
                        d="M113 76a1 1 0 1 1-2 0 1 1 0 0 1 2 0ZM139 76a1 1 0 1 1-2 0 1 1 0 0 1 2 0ZM61 116a1 1 0 1 1-2 0 1 1 0 0 1 2 0ZM72 110a1 1 0 1 1-2 0 1 1 0 0 1 2 0ZM68 102a1 1 0 1 1-2 0 1 1 0 0 1 2 0ZM92 93a1 1 0 1 1-2 0 1 1 0 0 1 2 0ZM43 75a1 1 0 1 1-2 0 1 1 0 0 1 2 0ZM80 91a1 1 0 1 1-2 0 1 1 0 0 1 2 0ZM80 73a1 1 0 1 1-2 0 1 1 0 0 1 2 0ZM115 87a1 1 0 1 1-2 0 1 1 0 0 1 2 0ZM115 69a1 1 0 1 1-2 0 1 1 0 0 1 2 0ZM122 71a1 1 0 1 1-2 0 1 1 0 0 1 2 0ZM137 62a1 1 0 1 1-2 0 1 1 0 0 1 2 0Z" />
                    <path
                        d="M31 109a1 1 0 1 1-2 0 1 1 0 0 1 2 0ZM83 116a1 1 0 1 1-2 0 1 1 0 0 1 2 0ZM79 123a1 1 0 1 1-2 0 1 1 0 0 1 2 0ZM99 121a1 1 0 1 1-2 0 1 1 0 0 1 2 0ZM100 111a1 1 0 1 1-2 0 1 1 0 0 1 2 0ZM120 116a1 1 0 1 1-2 0 1 1 0 0 1 2 0ZM130 102a1 1 0 1 1-2 0 1 1 0 0 1 2 0ZM21 88a1 1 0 1 1-2 0 1 1 0 0 1 2 0ZM54 104a1 1 0 1 1-2 0 1 1 0 0 1 2 0ZM51 124a1 1 0 1 1-2 0 1 1 0 0 1 2 0ZM69 128a1 1 0 1 1-2 0 1 1 0 0 1 2 0ZM103 102a1 1 0 1 1-2 0 1 1 0 0 1 2 0ZM117 106a1 1 0 1 1-2 0 1 1 0 0 1 2 0ZM109 123a1 1 0 1 1-2 0 1 1 0 0 1 2 0ZM123 92a1 1 0 1 1-2 0 1 1 0 0 1 2 0ZM30 94a1 1 0 1 1-2 0 1 1 0 0 1 2 0ZM54 94a1 1 0 1 1-2 0 1 1 0 0 1 2 0ZM54 76a1 1 0 1 1-2 0 1 1 0 0 1 2 0ZM58 130a1 1 0 1 1-2 0 1 1 0 0 1 2 0ZM85 130a1 1 0 1 1-2 0 1 1 0 0 1 2 0ZM96 130a1 1 0 1 1-2 0 1 1 0 0 1 2 0ZM113 94a1 1 0 1 1-2 0 1 1 0 0 1 2 0ZM113 76a1 1 0 1 1-2 0 1 1 0 0 1 2 0ZM133 89a1 1 0 1 1-2 0 1 1 0 0 1 2 0ZM33 81a1 1 0 1 1-2 0 1 1 0 0 1 2 0ZM43 116a1 1 0 1 1-2 0 1 1 0 0 1 2 0ZM39 123a1 1 0 1 1-2 0 1 1 0 0 1 2 0ZM79 103a1 1 0 1 1-2 0 1 1 0 0 1 2 0ZM91 105a1 1 0 1 1-2 0 1 1 0 0 1 2 0ZM77 135a1 1 0 1 1-2 0 1 1 0 0 1 2 0ZM100 84a1 1 0 1 1-2 0 1 1 0 0 1 2 0ZM100 66a1 1 0 1 1-2 0 1 1 0 0 1 2 0ZM124 81a1 1 0 1 1-2 0 1 1 0 0 1 2 0ZM131 71a1 1 0 1 1-2 0 1 1 0 0 1 2 0ZM42 90a1 1 0 1 1-2 0 1 1 0 0 1 2 0ZM42 101a1 1 0 1 1-2 0 1 1 0 0 1 2 0ZM63 86a1 1 0 1 1-2 0 1 1 0 0 1 2 0ZM63 68a1 1 0 1 1-2 0 1 1 0 0 1 2 0ZM75 82a1 1 0 1 1-2 0 1 1 0 0 1 2 0ZM87 76a1 1 0 1 1-2 0 1 1 0 0 1 2 0ZM100 76a1 1 0 1 1-2 0 1 1 0 0 1 2 0Z"
                        stroke="#000" />
                    <path
                        d="M113 76a1 1 0 1 1-2 0 1 1 0 0 1 2 0ZM139 76a1 1 0 1 1-2 0 1 1 0 0 1 2 0ZM61 116a1 1 0 1 1-2 0 1 1 0 0 1 2 0ZM72 110a1 1 0 1 1-2 0 1 1 0 0 1 2 0ZM68 102a1 1 0 1 1-2 0 1 1 0 0 1 2 0ZM92 93a1 1 0 1 1-2 0 1 1 0 0 1 2 0ZM43 75a1 1 0 1 1-2 0 1 1 0 0 1 2 0ZM80 91a1 1 0 1 1-2 0 1 1 0 0 1 2 0ZM80 73a1 1 0 1 1-2 0 1 1 0 0 1 2 0ZM115 87a1 1 0 1 1-2 0 1 1 0 0 1 2 0ZM115 69a1 1 0 1 1-2 0 1 1 0 0 1 2 0ZM122 71a1 1 0 1 1-2 0 1 1 0 0 1 2 0ZM137 62a1 1 0 1 1-2 0 1 1 0 0 1 2 0Z"
                        stroke="#000" />
                </g>
            </g>
        </g>
        <g transform="translate(170 183)">
            <path d="M13 46c1.72-7.96 8.07-24.77 19.77-28.35 11.7-3.58 17.7 8.46 19.23 14.92"
                stroke="#000000" stroke-width="4" />
        </g>
        <g transform="translate(110 102)">
            <path d="M27 26.5c6.17 2.5 21.1 3 31.5-15M94 4c5.17 5.33 18.1 12.8 28.5 0"
                stroke="#000000" stroke-width="4" stroke-linecap="round" />
        </g>
        <g transform="translate(49 11)">
            <path
                d="M210.18 49.4c-1.27 6.05-4.6 11.32-9.43 15.9 9.4 34.06 9.6 53.87 4.38 57.65l-14.8-49.99C158.4 91.7 98.65 94.9 83.69 94.9c-1.55.17-3.02.4-4.43.67-14.65 9-2.6 52.12 11.75 70.43l-11 2c-5.14-24.97-17.41-22.92-26.61-21.38l-.32.05c2.2 13.63 6.72 27.74 10.45 39.32.95 2.99 1.86 5.8 2.66 8.4-.79.1-1.48.3-2.12.47-5.5 1.53-7.41 2.06-33.38-61.97-6.47-15.95-6.03-30.16-.97-42.62-4.78-4.8-14.37-7.14-19.71-7.78 10.44-6.12 20.58-4.87 25.54-3.1.5-.75 1.02-1.49 1.56-2.22-.97-4.41-7.96-9.46-12.11-11.82 8.55-4.3 18.6-2.03 22.98-.2C67.63 47.13 97.03 35.05 122 29 170.81 17.17 189.5.5 189.5.5c20.68 8.5 25.62 25.22 20.68 48.9Z"
                fill="#e0ddff" stroke="#000" stroke-width="4" />
        </g>
        <g transform="translate(142 119)">
            <g fill="#000000">
                <ellipse cx="16.12" cy="28.93" rx="9" ry="10"
                    transform="rotate(-6.78 16.12 28.93)" />
                <ellipse cx="80.15" cy="18.92" rx="9" ry="10"
                    transform="rotate(-6.28 80.15 18.92)" />
            </g>
            <g transform="translate(-40 -8)">
                <g stroke="#fc909f" stroke-width="4">
                    <path d="M34.5 42.5 0 49.12" stroke-linecap="round" />
                    <path
                        d="M35.47 18.53 74.2 13.1a6 6 0 0 1 6.77 5.1l5.57 39.62a6 6 0 0 1-5.1 6.78l-34.48 4.84a6 6 0 0 1-6.65-4.48l-9.81-39.01a6 6 0 0 1 4.98-7.4ZM145.92 3.22 107.2 8.66a6 6 0 0 0-5.1 6.78l5.56 39.6a6 6 0 0 0 6.78 5.11l34.47-4.84a6 6 0 0 0 5.16-6.14l-1.32-40.2a6 6 0 0 0-6.83-5.75ZM83.5 37.12l22-3.5" />
                </g>
            </g>
        </g>
        <g transform="rotate(-8 1149.44 -1186.92)">
            <path d="M16.5 7c-.33 3.83 0 12.2 4 15 5 3.5-.5 12-10.5 10" stroke="#000"
                stroke-width="4" />
        </g>
        <g transform="translate(84 154)">
            <path
                d="M37 8.25V7.13l-.95-.59A24.91 24.91 0 0 0 23.08 3C17.44 3 12.16 4.75 8.4 8.3c-3.8 3.58-5.86 8.83-5.31 15.37.52 6.37 2.66 11.06 6.2 14.17-.29 1-.37 2.08-.24 3.21a8.98 8.98 0 0 0 4.6 7.08C16.09 49.5 19.2 50 22.52 50c5.48 0 10.29-2.95 13.95-6.89l.53-.57V8.25Z"
                stroke="#000" stroke-width="4" />
            <path
                d="M42.97 23.98c.07-.65.1-1.3.1-1.98 0-10.22-9.5-17-20-17C12.6 5 4.09 11.5 5.09 23.5c.56 6.68 2.95 11.07 6.65 13.72a5.7 5.7 0 0 0-.68 3.6C11.68 46.1 16.19 48 22.52 48c11.1 0 19.9-14.05 20.45-24.02Z"
                fill="#f9c9b6" />
            <path d="M27.5 13.5c-4-1.83-12.8-2.8-16 8" stroke="#000" stroke-width="4" />
            <path d="M17 14c2.17 1.83 6.3 7.5 5.5 15.5" stroke="#000" stroke-width="4" />
            <g transform="translate(3 42)"></g>
        </g>
        <g transform="translate(53 272)">
            <path
                d="M260.37 90.86H-12.54l.1-.2C-7.89 81.38.5 64.31 11.4 49.03c6.2-8.67 13.13-16.65 20.54-22.27 7.41-5.61 15.12-8.73 22.95-8.04 15.06 1.31 28.46 9.56 41.93 17.83l3.83 2.35c14.48 8.82 29.35 17.02 45.72 13.43 5.53-1.2 9.26-3.8 11.6-7.16 2.32-3.3 3.15-7.15 3.3-10.66.14-3.52-.4-6.85-.96-9.26a39.89 39.89 0 0 0-.75-2.78c3.63-3.64 7.47-5.77 11.43-6.73 4.3-1.03 8.89-.73 13.72.7 9.73 2.87 20.14 10.25 30.3 19.73 18.61 17.37 35.69 41.14 45.36 54.68Z"
                fill="#d2eff3" stroke="#000" stroke-width="4.27" />
        </g>
    </g>
</svg>